<svg width="158" height="35" viewBox="0 0 158 35" fill="none" xmlns="http://www.w3.org/2000/svg">
<path d="M77.3546 7.46777C76.4799 7.46777 75.81 8.13896 75.81 9.04262L75.8389 21.2329L66.0982 8.48834C65.6017 7.81847 65.2523 7.46777 64.5522 7.46777C63.7063 7.46777 63.0352 8.13896 63.0352 8.98483V25.7828C63.0352 26.6865 63.7063 27.3577 64.5811 27.3577C65.4559 27.3577 66.1271 26.6878 66.1271 25.7828V13.5636L75.9269 26.4829C76.3354 27.0083 76.7439 27.3577 77.3848 27.3577C78.2596 27.3577 78.9006 26.6878 78.9006 25.8406V9.04262C78.8993 8.13896 78.2294 7.46777 77.3546 7.46777Z" fill="white"/>
<path d="M114.212 24.2658H106.658V9.04262C106.658 8.13896 106.017 7.46777 105.112 7.46777C104.209 7.46777 103.566 8.16785 103.566 9.04262V25.4334C103.566 26.3673 104.238 27.0372 105.17 27.0372H114.211C115.028 27.0372 115.61 26.4251 115.61 25.6383C115.612 24.8489 115.029 24.2658 114.212 24.2658Z" fill="white"/>
<path d="M126.212 7.46777C120.555 7.46777 116.122 11.8416 116.122 17.4121C116.122 22.9825 120.555 27.3564 126.212 27.3564C131.871 27.3564 136.332 22.9825 136.332 17.4121C136.332 11.8718 131.871 7.46777 126.212 7.46777ZM126.242 24.5285C122.247 24.5285 119.331 21.5245 119.331 17.3832C119.331 13.3009 122.247 10.297 126.242 10.297C130.209 10.297 133.154 13.3298 133.154 17.3832C133.153 21.4956 130.208 24.5285 126.242 24.5285Z" fill="white"/>
<path d="M156.425 16.8493H151.852C150.977 16.8493 150.335 17.4614 150.335 18.2193C150.335 18.9771 150.976 19.5892 151.852 19.5892H154.91V21.8064C153.684 23.5559 151.555 24.5765 149.164 24.5765C145.023 24.5765 142.078 21.5726 142.078 17.3734C142.078 13.2609 144.965 10.2872 148.99 10.2872C151.09 10.2872 152.664 11.0451 154.21 12.708C154.706 13.2622 155.055 13.4369 155.551 13.4369C156.368 13.4369 156.98 12.7657 156.98 12.0368C156.98 11.5705 156.746 11.1331 156.251 10.6077C154.647 8.68217 151.847 7.45801 149.017 7.45801C143.301 7.45801 138.868 11.7741 138.868 17.4023C138.868 23.0305 143.301 27.3466 149.017 27.3466C152.401 27.3466 155.695 25.7126 157.475 23.1474C157.853 22.5642 158 21.9797 158 21.2508V18.4504C158.001 17.5205 157.33 16.8493 156.425 16.8493Z" fill="white"/>
<path d="M52.9737 8.69324C52.623 7.94457 51.8717 7.46777 51.0442 7.46777C50.218 7.46777 49.4654 7.94588 49.1147 8.69324L42.0889 24.9947C41.9142 25.3454 41.8564 25.637 41.8564 25.8695C41.8564 26.6865 42.5263 27.3564 43.3722 27.3564C44.0723 27.3564 44.5688 26.9768 44.8301 26.278L46.2671 22.8039H55.8042L57.2359 26.278C57.4986 26.9768 57.9937 27.3564 58.6938 27.3564C59.5397 27.3564 60.2096 26.6865 60.2096 25.8695C60.2096 25.637 60.1518 25.3441 59.9771 24.9947L52.9737 8.69324ZM47.4794 19.8748L51.0402 11.2637V11.2493L54.5971 19.8748H47.4794Z" fill="white"/>
<path d="M93.0869 8.69324C92.7362 7.94457 91.9849 7.46777 91.1575 7.46777C90.3313 7.46777 89.5787 7.94588 89.228 8.69324L82.2022 24.9947C82.0275 25.3454 81.9697 25.637 81.9697 25.8695C81.9697 26.6865 82.6396 27.3564 83.4855 27.3564C84.1855 27.3564 84.682 26.9768 84.9434 26.278L86.3804 22.8039H95.9175L97.3492 26.278C97.6119 26.9768 98.107 27.3564 98.8071 27.3564C99.653 27.3564 100.323 26.6865 100.323 25.8695C100.323 25.637 100.265 25.3441 100.09 24.9947L93.0869 8.69324ZM87.5927 19.8748L91.1535 11.2637V11.2493L94.7104 19.8748H87.5927Z" fill="white"/>
<path d="M28.5601 6.18054L19.4499 0.920087C17.3234 -0.306696 14.6833 -0.306696 12.5568 0.920087L3.44655 6.18054C1.32004 7.40863 0 9.69539 0 12.1503V22.6712C0 25.126 1.32135 27.4128 3.44655 28.6409L12.5568 33.9C13.6194 34.5134 14.812 34.8208 16.0033 34.8208C17.1946 34.8208 18.3873 34.5134 19.4499 33.9L28.5601 28.6409C30.6866 27.4128 32.0067 25.126 32.0067 22.6712V12.1503C32.008 9.6967 30.6866 7.40863 28.5601 6.18054ZM28.966 22.6712C28.966 24.0424 28.2278 25.3204 27.0391 26.0074L17.9289 31.2665C16.7415 31.9522 15.2652 31.9522 14.0765 31.2665L4.96624 26.0074C3.77755 25.3218 3.03937 24.0424 3.03937 22.6712V12.1503C3.03937 10.779 3.77755 9.50099 4.96624 8.81404L14.0765 3.55359C14.6702 3.21078 15.3361 3.03871 16.002 3.03871C16.6679 3.03871 17.3339 3.21078 17.9276 3.55359L27.0378 8.81404C28.2265 9.49968 28.9647 10.779 28.9647 12.1503V22.6712H28.966Z" fill="url(#paint0_linear_7007_12678)"/>
<path d="M23.4117 11.2993L15.0974 16.1198C14.593 16.4113 14.3251 16.9472 14.3448 17.4923C14.3435 17.5186 14.3369 17.5422 14.3369 17.5685V24.2252C14.3369 25.0645 15.0173 25.7462 15.8579 25.7462C16.6972 25.7462 17.3789 25.0658 17.3789 24.2252V18.3172L24.9327 13.9355C25.6604 13.5151 25.9086 12.5852 25.4896 11.8575C25.0693 11.1286 24.138 10.879 23.4117 11.2993Z" fill="url(#paint1_linear_7007_12678)"/>
<defs>
<linearGradient id="paint0_linear_7007_12678" x1="3.72504" y1="4.00728" x2="16.0087" y2="17.4169" gradientUnits="userSpaceOnUse">
<stop offset="0.1249" stop-color="#D274F7"/>
<stop offset="1" stop-color="#9A74F7"/>
</linearGradient>
<linearGradient id="paint1_linear_7007_12678" x1="4.48027" y1="1.46124" x2="17.4441" y2="15.6135" gradientUnits="userSpaceOnUse">
<stop offset="0.1249" stop-color="#D274F7"/>
<stop offset="1" stop-color="#9A74F7"/>
</linearGradient>
</defs>
</svg>
